<?xml version="1.0" standalone="no"?>
<!DOCTYPE svg PUBLIC "-//W3C//DTD SVG 20010904//EN"
 "http://www.w3.org/TR/2001/REC-SVG-20010904/DTD/svg10.dtd">
<svg version="1.0" xmlns="http://www.w3.org/2000/svg"
 width="300.000000pt" height="301.000000pt" viewBox="0 0 300.000000 301.000000"
 preserveAspectRatio="xMidYMid meet">
<metadata>
Created by potrace 1.10, written by Peter Selinger 2001-2011
</metadata>
<g transform="translate(0.000000,301.000000) scale(0.100000,-0.100000)"
fill="#000000" stroke="none">
<path d="M1375 2873 c-377 -60 -689 -332 -784 -683 -71 -259 -36 -462 143
-825 137 -277 382 -667 646 -1030 56 -77 105 -147 110 -155 10 -17 7 -21 81
80 498 673 818 1246 874 1567 25 144 -6 339 -79 498 -119 258 -350 451 -631
527 -69 19 -293 32 -360 21z m252 -44 c97 -13 237 -59 317 -104 368 -207 551
-647 427 -1027 -103 -314 -343 -732 -749 -1301 -68 -95 -111 -147 -121 -145
-18 4 -112 130 -292 396 -314 464 -528 867 -591 1115 -17 67 -19 102 -16 221
5 152 25 229 89 357 39 79 139 209 204 266 199 174 473 258 732 222z"/>
<path d="M1123 2440 c-76 -38 -135 -102 -176 -188 -27 -58 -32 -80 -35 -169
-5 -120 15 -195 77 -290 74 -113 253 -263 433 -362 79 -43 107 -41 212 20 296
169 451 363 463 579 11 184 -68 339 -209 410 -52 26 -72 30 -137 30 -85 0
-137 -19 -199 -70 -20 -16 -41 -30 -45 -30 -5 0 -32 16 -59 36 -66 49 -109 63
-194 64 -59 0 -81 -5 -131 -30z m255 -36 c29 -14 69 -45 89 -69 l38 -42 37 42
c115 130 301 128 420 -4 61 -68 90 -143 95 -251 4 -69 1 -97 -17 -150 -58
-174 -197 -318 -437 -450 l-93 -52 -93 52 c-273 156 -443 343 -466 514 -17
127 26 272 104 351 87 86 220 111 323 59z"/>
</g>
</svg>
